<svg version="1.1" id="Layer_1" xmlns="http://www.w3.org/2000/svg" xmlns:xlink="http://www.w3.org/1999/xlink" x="0px" y="0px"
	 width="100%" viewBox="0 0 288 240" enable-background="new 0 0 288 240" xml:space="preserve">
<path fill="#000000" opacity="1.000000" stroke="none" 
	d="
M163.858170,158.819427 
	C162.553070,140.667892 160.783752,123.032623 156.567032,105.499504 
	C155.497299,113.125099 154.045593,120.720001 153.429779,128.382080 
	C151.616440,150.944672 148.807419,173.395187 146.349731,195.885986 
	C146.079926,198.355011 145.126358,199.441391 142.610291,199.428162 
	C135.427032,199.390366 128.352463,198.309250 121.244644,197.481155 
	C117.544312,197.050034 116.657021,194.997055 116.786179,191.663010 
	C117.295486,178.515884 117.679123,165.363892 118.105797,152.213577 
	C118.651215,135.403305 119.377022,118.596230 119.679337,101.781563 
	C119.928314,87.933228 121.070282,74.205750 123.378952,60.553196 
	C123.875000,57.619827 123.597733,54.562927 123.962822,51.598164 
	C124.331429,48.604858 125.727974,46.879272 129.307877,47.260857 
	C147.240784,49.172359 165.197800,49.405842 183.174194,47.684570 
	C189.200043,47.107586 190.887955,48.053535 190.570969,53.893677 
	C190.049042,63.508766 192.889526,72.631607 193.605225,82.058121 
	C194.552704,94.537254 194.150574,107.013283 194.859756,119.484917 
	C196.220856,143.420349 196.466476,167.417892 197.338959,191.383698 
	C197.481598,195.301910 196.385574,197.287506 192.257706,197.581665 
	C186.284927,198.007324 180.320938,198.660767 174.383713,199.447372 
	C169.632965,200.076782 167.973236,198.222031 167.589691,193.465973 
	C166.668579,182.043427 165.163849,170.667938 163.858170,158.819427 
M152.700958,105.436317 
	C153.326965,101.335701 154.435959,97.240120 154.478806,93.133423 
	C154.568939,84.492477 153.973709,75.846817 153.896790,67.200981 
	C153.824417,59.068272 152.332870,58.059532 144.844498,61.160244 
	C142.904114,61.963703 142.039688,63.299892 141.198898,64.946381 
	C139.107437,69.042007 136.157227,72.893097 132.067703,74.480614 
	C126.409218,76.677193 126.251236,80.529602 126.279999,85.393242 
	C126.302521,89.201073 128.445938,93.748459 123.750122,96.580070 
	C123.825653,98.131996 126.059891,97.093788 126.199188,99.025093 
	C124.572769,100.197098 123.229332,101.680809 123.295723,104.374580 
	C123.540283,114.297554 122.761475,124.288933 123.630249,134.143250 
	C124.939461,148.993561 124.321175,163.646332 122.178337,178.338058 
	C121.333519,184.130325 123.777092,189.456146 126.800240,194.026703 
	C128.120911,196.023376 132.139999,194.899490 134.934937,195.010925 
	C139.492416,195.192612 143.018402,192.210922 143.553543,187.543274 
	C144.707169,177.481003 145.727295,167.402344 146.697266,157.320328 
	C148.336807,140.278656 150.194473,123.263954 152.700958,105.436317 
M168.069290,160.218658 
	C169.073990,169.454269 170.087097,178.688995 171.076508,187.926239 
	C171.281876,189.843521 171.525269,191.733139 174.097305,191.604950 
	C178.903214,191.365433 183.706848,191.070312 188.507645,190.743073 
	C190.080139,190.635880 191.940048,190.110138 191.416580,188.204071 
	C190.437943,184.640594 191.298462,181.089111 190.944412,177.521835 
	C190.211334,170.135483 189.014954,162.416809 190.433899,155.319565 
	C191.494797,150.013046 190.849915,144.803101 191.897995,139.737350 
	C192.898636,134.900833 189.831696,130.886459 190.246841,126.117134 
	C190.449921,123.783958 188.568481,120.865135 188.390228,118.080788 
	C187.999420,111.975914 187.805420,105.857315 187.604996,99.741890 
	C187.513123,96.938667 187.181229,93.967773 188.493149,91.441940 
	C190.334763,87.896255 188.489471,77.906448 184.818924,76.537849 
	C179.104584,74.407204 175.686203,70.215103 172.669586,65.399765 
	C169.866959,60.926006 165.805038,59.555069 160.741226,60.114098 
	C158.470444,60.364788 157.316254,61.290913 157.603043,63.588375 
	C159.013428,74.886757 157.655655,86.274498 160.064331,97.648254 
	C164.366837,117.964813 165.892563,138.739319 168.069290,160.218658 
M181.502869,69.953506 
	C185.663651,71.918152 186.543167,69.598701 187.123505,66.048996 
	C187.608444,63.082592 188.318161,60.443260 184.663620,59.077438 
	C181.461273,57.880615 177.758530,57.951866 175.922653,60.385456 
	C174.051300,62.866085 176.774704,65.576866 178.578171,67.731323 
	C179.204468,68.479515 180.110153,68.993843 181.502869,69.953506 
M128.927429,66.603920 
	C128.368683,70.443810 129.774460,71.292702 132.978027,69.204948 
	C136.357727,67.002403 138.216751,63.964520 138.141983,59.893028 
	C130.883514,57.420879 129.769821,58.182060 128.927429,66.603920 
M183.050110,54.839294 
	C184.423889,54.615364 186.142960,54.975502 186.512878,52.232883 
	C182.449722,50.340790 178.757553,51.853542 174.407578,53.184509 
	C177.565399,55.045658 177.565399,55.045658 183.050110,54.839294 
M135.369843,54.887745 
	C136.749115,54.762722 138.391632,55.429478 139.236053,53.632378 
	C135.194733,50.636551 132.645737,50.562172 129.112991,53.346760 
	C130.575745,55.186687 132.708862,54.545792 135.369843,54.887745 
M182.803772,194.743454 
	C184.984299,194.520432 187.333496,195.161453 189.586945,193.328888 
	C185.751251,191.632919 182.726425,193.382812 179.646759,194.749420 
	C180.461655,194.749420 181.276566,194.749420 182.803772,194.743454 
z"/>
<path fill="#000000" opacity="1.000000" stroke="none" 
	d="
M163.348175,67.155487 
	C163.216965,69.497025 163.096588,71.425385 162.976212,73.353745 
	C161.186966,69.967285 160.630234,66.539711 161.783157,62.768887 
	C163.769882,63.770248 163.043869,65.442566 163.348175,67.155487 
z"/>
</svg>