<svg version="1.1" id="Layer_1" xmlns="http://www.w3.org/2000/svg" xmlns:xlink="http://www.w3.org/1999/xlink" x="0px" y="0px"
	 width="100%" viewBox="0 0 272 272" enable-background="new 0 0 272 272" xml:space="preserve">
<path fill="#000000" opacity="1.000000" stroke="none" 
	d="
M137.110260,211.843323 
	C135.191757,206.438065 136.540314,204.009232 141.539902,203.791565 
	C145.783997,203.606781 149.725281,204.180130 154.012054,205.788559 
	C160.436661,208.199142 167.768814,208.404221 174.107071,204.087173 
	C178.090027,201.374329 179.362625,197.456924 178.644211,192.275970 
	C176.297195,192.790588 174.130905,193.372177 171.928207,193.729065 
	C164.574387,194.920578 159.910782,191.215042 159.639404,183.748978 
	C159.331207,175.269379 159.150681,166.780975 159.132492,158.295929 
	C159.101288,143.730820 160.688171,142.127151 175.001755,141.839432 
	C175.740189,131.447922 175.741653,120.365295 169.716003,112.127609 
	C163.901321,104.178329 155.973373,97.060448 144.173874,96.802971 
	C132.509018,96.548424 123.184937,100.812004 117.327301,110.151611 
	C111.996559,118.651146 110.648392,128.847992 111.323479,139.049683 
	C111.495834,141.654343 113.319725,141.619003 115.237762,141.754257 
	C122.977257,142.300049 126.292007,145.759354 126.378166,153.427963 
	C126.486557,163.076523 126.603966,172.726929 126.525276,182.374969 
	C126.474350,188.618637 123.997513,192.083267 119.133980,193.457794 
	C112.442032,195.349075 106.867180,193.752594 103.485970,188.960571 
	C102.911362,188.146194 102.586029,186.967117 101.816490,186.507736 
	C92.263092,180.804932 92.569695,171.518433 92.842300,162.223907 
	C92.911369,159.869247 92.916641,157.224014 94.498070,155.554703 
	C98.270592,151.572510 98.012619,146.821716 97.931503,141.996994 
	C97.745674,130.942917 98.947769,120.207268 102.887459,109.672760 
	C111.074989,87.779808 135.894226,78.712196 155.895584,84.553040 
	C173.108246,89.579514 182.018585,101.724045 186.349945,118.346512 
	C188.734314,127.497009 189.154984,136.736786 188.949615,146.074493 
	C188.881927,149.151688 189.543442,151.828339 191.261765,154.525101 
	C197.695358,164.622101 195.028656,178.461487 185.401337,185.300888 
	C183.401215,186.721786 183.288498,188.421829 183.244949,190.466187 
	C182.952499,204.195038 176.912796,210.374908 163.104553,211.084335 
	C158.684708,211.311401 154.506409,211.267395 150.132797,213.452789 
	C146.426758,215.304626 141.338043,215.413376 137.110260,211.843323 
M117.666473,189.558243 
	C121.284355,188.433838 122.523216,185.459167 122.586754,182.204437 
	C122.778275,172.392441 122.824295,162.570862 122.600502,152.760468 
	C122.492989,148.047058 119.538292,145.524719 114.938583,145.299484 
	C107.860901,144.952896 104.785019,148.159836 104.592438,156.608185 
	C104.426064,163.906754 104.459190,171.216507 104.649422,178.514908 
	C104.892288,187.832626 107.524864,190.134720 117.666473,189.558243 
M183.439133,182.173630 
	C186.160522,181.016968 188.666534,179.236023 189.264664,176.384094 
	C190.498169,170.502563 190.711639,164.421814 189.303558,158.565231 
	C188.271271,154.271637 182.912079,151.364334 178.626099,152.127686 
	C173.640945,153.015579 173.253311,156.886581 173.216080,160.888260 
	C173.174301,165.380020 173.088654,169.873550 173.168198,174.363739 
	C173.282227,180.799759 176.020660,183.068924 183.439133,182.173630 
M169.493561,165.000900 
	C168.474457,160.516266 169.722672,156.043335 169.546371,151.571121 
	C169.466339,149.541046 169.890961,146.552048 166.895782,146.528381 
	C164.074402,146.506073 163.309875,149.158066 163.263824,151.625443 
	C163.173767,156.451706 163.224594,161.280701 163.226547,166.108566 
	C163.228973,172.101868 163.241318,178.095169 163.248749,184.088470 
	C163.251999,186.702988 164.370239,189.116470 166.919418,189.276733 
	C170.142090,189.479385 169.497879,186.371658 169.535919,184.400803 
	C169.654755,178.243881 169.559158,172.082825 169.493561,165.000900 
M183.637299,123.818062 
	C183.146271,120.182854 182.208786,116.674301 180.846863,113.260719 
	C179.548843,110.007332 177.492722,109.690132 174.272354,111.374710 
	C178.008804,122.300972 180.014328,133.314316 179.330902,144.728134 
	C179.129547,148.090973 181.601410,148.160599 184.517471,148.073547 
	C184.833282,140.120575 185.259003,132.386261 183.637299,123.818062 
M107.178078,110.233917 
	C101.114182,121.685570 102.048637,133.951492 102.354874,147.058533 
	C105.027542,144.149414 107.875504,142.623398 107.614876,139.050629 
	C106.990738,130.494720 108.637489,122.226067 111.083725,114.114388 
	C112.102234,110.737030 110.716728,109.889107 107.178078,110.233917 
M170.620422,96.874565 
	C162.922104,89.987282 154.026138,86.482491 143.705856,86.948509 
	C155.270462,88.272659 164.153900,94.153183 171.350555,103.029228 
	C172.559723,104.520554 173.611572,106.521049 176.129974,105.126854 
	C174.938934,101.532410 174.938934,101.532410 170.620422,96.874565 
M153.353897,93.757767 
	C142.912979,86.814964 116.002098,93.834373 115.073372,105.866478 
	C117.818970,103.525543 120.066711,101.372444 122.548347,99.535301 
	C131.913330,92.602379 142.429382,92.082504 153.353897,93.757767 
M100.691116,174.033096 
	C100.691116,167.785904 100.691116,161.538727 100.691116,154.737640 
	C95.860466,159.052383 95.789047,174.931290 99.974640,178.635162 
	C101.110504,177.545715 100.435028,176.121750 100.691116,174.033096 
z"/>
<path fill="#000000" opacity="1.000000" stroke="none" 
	d="
M115.231995,183.878723 
	C111.919991,182.418304 110.825073,179.865082 110.769951,176.889999 
	C110.659012,170.902878 110.554565,164.904694 110.807182,158.926270 
	C110.939079,155.804962 111.435165,152.027588 115.605736,151.933472 
	C119.956818,151.835281 120.931030,155.588623 121.079964,158.953629 
	C121.351799,165.095810 121.265915,171.265213 121.046982,177.413193 
	C120.927277,180.774887 119.659729,183.638702 115.231995,183.878723 
M114.575935,177.881866 
	C117.415764,181.089905 117.465805,177.707550 117.497383,176.389023 
	C117.640404,170.418930 117.525337,164.440842 117.392494,158.468079 
	C117.373711,157.623413 117.180305,156.392120 115.175613,156.626953 
	C113.564911,163.359238 114.627907,170.321747 114.575935,177.881866 
z"/>
</svg>