<svg version="1.1" id="Layer_1" xmlns="http://www.w3.org/2000/svg" xmlns:xlink="http://www.w3.org/1999/xlink" x="0px" y="0px"
	 width="100%" viewBox="0 0 272 256" enable-background="new 0 0 272 256" xml:space="preserve">
<path fill="#000000" opacity="1.000000" stroke="none" 
	d="
M159.027832,168.581055 
	C150.926300,169.072327 143.287903,168.927078 135.600388,168.346176 
	C131.080048,168.004608 126.481300,168.688782 121.846359,168.443558 
	C112.578819,167.953232 103.256073,168.518616 93.986534,168.048523 
	C89.419678,167.816910 84.880974,166.403427 80.399719,165.251709 
	C72.992363,163.347946 73.837196,156.351669 75.086769,152.227509 
	C79.144958,138.833771 75.630135,124.546547 80.778740,111.449585 
	C81.751770,108.974396 82.526642,106.421715 83.480904,103.938599 
	C84.382362,101.592911 85.997719,99.886314 88.639992,99.905136 
	C91.217949,99.923492 92.961121,101.500900 93.980560,103.796272 
	C94.858391,105.772797 95.542397,107.835747 96.428345,109.808266 
	C99.850868,117.428291 104.986687,119.589523 115.244141,117.409477 
	C118.142014,116.793594 120.968994,115.618172 123.669426,114.358383 
	C126.814667,112.891083 129.468826,110.979576 127.933372,106.660133 
	C127.526169,105.514603 127.896370,104.010010 128.160706,102.721809 
	C129.931946,94.089828 133.272217,92.684669 140.523666,97.479012 
	C143.406265,99.384865 145.914154,101.837906 149.598770,102.436508 
	C152.025986,102.830841 152.026642,105.785538 153.704651,107.512222 
	C157.201538,106.419411 160.611832,105.994873 161.624252,110.968620 
	C161.838913,112.023270 162.933502,112.666763 163.978958,112.304276 
	C167.956924,110.925034 169.902603,113.018883 171.031387,116.715271 
	C174.776443,115.529518 177.716843,115.996155 179.659698,119.601463 
	C180.464584,121.095070 182.380478,121.407005 183.958313,121.940697 
	C191.996536,124.659592 199.968079,127.574196 208.234314,129.591507 
	C211.128723,130.297867 214.004242,131.268585 216.715256,132.499771 
	C222.019745,134.908768 225.756912,139.252914 224.900925,144.991562 
	C224.052811,150.677429 223.137436,156.243729 215.986237,159.706711 
	C207.100830,164.009491 197.949875,166.344025 188.579468,167.713470 
	C179.007065,169.112442 169.225250,170.555069 159.027832,168.581055 
M162.506027,154.256699 
	C144.756622,153.049026 127.001137,151.922882 109.260452,150.598511 
	C100.678490,149.957870 91.907639,150.738022 83.629814,147.454651 
	C82.384018,146.960510 80.752609,145.646729 79.747353,147.728928 
	C78.815247,149.659622 80.249115,151.000244 81.614655,151.863647 
	C83.678497,153.168579 85.974777,154.105911 88.627174,155.425827 
	C85.641129,156.563675 83.134056,153.987442 80.558426,156.343826 
	C84.122124,159.882202 88.454971,160.075775 92.697052,160.172226 
	C107.828644,160.516266 122.965790,160.628662 138.096008,161.016754 
	C152.885559,161.396118 167.657913,162.578659 182.454269,160.869644 
	C191.912750,159.777206 201.158661,157.944778 210.111176,154.673355 
	C212.671494,153.737762 213.976746,152.344162 212.469666,149.193192 
	C196.397186,153.841385 180.014633,154.722595 162.506027,154.256699 
M102.541809,132.864288 
	C105.278412,135.141769 107.437737,137.755920 108.335457,141.349426 
	C109.628120,146.523834 117.749054,149.437714 121.532585,145.523270 
	C127.993614,138.838654 133.703705,131.425278 139.669907,124.268555 
	C140.556992,123.204475 140.842285,121.972466 139.609772,120.708221 
	C136.725433,117.749626 128.353165,116.365761 124.404083,118.325066 
	C117.635681,121.683167 110.608185,123.457657 103.198395,120.931091 
	C100.383331,119.971214 98.307716,119.885979 96.055130,122.167542 
	C93.924370,124.325714 91.057686,124.487465 88.102249,123.723145 
	C86.555832,123.323212 84.997147,122.216827 82.798180,122.999168 
	C88.774261,127.810425 96.250237,128.306000 102.541809,132.864288 
M170.922119,135.333694 
	C167.260483,139.934631 162.842896,143.976730 159.855316,149.833267 
	C167.449371,151.200241 174.552094,150.683914 181.633209,150.330795 
	C183.254196,150.249954 184.350403,149.077850 184.520264,147.364807 
	C185.122162,141.294769 189.175781,138.593948 194.436188,136.888397 
	C197.010513,136.053726 199.892807,135.431076 201.146805,132.104584 
	C198.570206,130.762009 196.164627,129.285553 193.634537,131.313248 
	C188.511734,135.418777 182.684891,134.502823 176.908981,133.946579 
	C174.946457,133.757584 172.980484,132.808289 170.922119,135.333694 
M104.184441,146.422714 
	C108.148056,146.875092 107.221878,144.485794 106.444649,142.379395 
	C103.680779,134.888947 97.132317,131.938309 90.414803,129.295883 
	C81.127754,125.642723 81.272858,125.692307 81.190071,136.015732 
	C81.151817,140.787186 82.904671,143.265778 87.623734,144.464508 
	C92.855423,145.793457 98.171967,145.570587 104.184441,146.422714 
M188.178894,143.787918 
	C187.683289,146.128159 185.384659,149.727386 190.281006,149.333862 
	C197.345413,148.766068 204.491135,148.174850 211.267029,145.654434 
	C214.107208,144.597961 216.368088,143.147079 216.537949,139.816589 
	C216.649353,137.632385 215.800919,135.693146 213.611984,135.143829 
	C210.425751,134.344208 207.004501,131.300827 203.931000,134.101028 
	C201.052109,136.723923 197.893539,138.039764 194.322510,138.876358 
	C191.773880,139.473450 189.749023,140.765274 188.178894,143.787918 
M186.316681,126.833565 
	C183.310349,126.687027 180.730667,122.849976 177.256134,126.204437 
	C173.802780,129.538452 171.557495,128.651199 170.652817,123.950264 
	C170.466110,122.980110 170.612946,121.909332 169.190765,121.539383 
	C167.096405,121.735405 166.081192,125.072922 163.180954,123.771332 
	C160.434082,122.538574 161.435623,119.338425 159.846313,117.543900 
	C157.345657,118.148552 155.909882,121.291267 152.959900,119.710571 
	C150.121216,118.189514 152.151566,114.772064 150.501511,112.753151 
	C148.065582,113.787964 146.979172,117.177284 143.865936,115.683296 
	C140.972412,114.294762 142.123947,111.407173 141.841263,108.912857 
	C138.280518,109.253326 135.734421,110.729233 133.679230,113.177902 
	C134.043655,113.696068 134.173874,114.109703 134.426712,114.208031 
	C148.797974,119.797318 162.888489,126.153748 177.756348,130.387802 
	C180.787064,131.250885 184.072693,131.219589 187.102676,130.162704 
	C189.867523,129.198288 189.051819,128.011337 186.316681,126.833565 
M154.369217,135.894272 
	C155.852509,133.422180 158.599396,131.750626 159.246887,128.694870 
	C157.262711,127.146271 155.208115,125.713821 153.336731,127.802597 
	C147.657120,134.141937 142.216202,140.695145 136.397491,147.498093 
	C141.100021,149.492477 144.212830,148.950027 146.785294,145.405502 
	C149.025650,142.318558 151.534012,139.426117 154.369217,135.894272 
M146.414444,129.956970 
	C147.464157,128.350449 149.388748,127.211914 149.167709,124.839851 
	C147.135391,123.003632 145.391495,123.271461 143.695511,125.364754 
	C141.711090,127.814034 139.594589,130.155792 137.582230,132.583038 
	C133.831009,137.107635 130.113632,141.660339 126.204826,146.417160 
	C129.973312,148.751526 131.876511,146.910553 133.648911,144.861282 
	C137.775101,140.090515 141.854828,135.279572 146.414444,129.956970 
M95.142555,117.834213 
	C94.524162,112.690468 91.722092,108.633858 89.171471,104.318680 
	C85.747490,106.235001 85.472900,109.255119 84.820282,111.857727 
	C84.285751,113.989418 82.072166,116.757248 85.275131,118.458023 
	C88.305054,120.066940 91.649872,121.673149 95.142555,117.834213 
M166.789856,133.875366 
	C167.104385,130.487717 165.092422,129.786469 163.089233,131.696411 
	C158.003372,136.545593 153.660751,142.082779 149.772293,148.067719 
	C152.991959,150.099533 154.935730,149.142044 156.674759,146.891861 
	C159.907135,142.709381 163.210144,138.581467 166.789856,133.875366 
M134.289169,107.016968 
	C136.832428,106.142403 139.375687,105.267830 142.207031,104.294197 
	C137.184387,99.754364 135.238388,98.720154 133.857605,100.149803 
	C131.874893,102.202667 131.146118,104.643288 134.289169,107.016968 
z"/>
<path fill="#000000" opacity="1.000000" stroke="none" 
	d="
M131.854736,156.155762 
	C137.691849,157.002182 143.389893,155.873993 148.767059,158.258163 
	C142.084015,159.221115 135.417389,159.538055 128.690338,158.021057 
	C128.696228,155.629349 130.391861,156.368713 131.854736,156.155762 
z"/>
<path fill="#000000" opacity="1.000000" stroke="none" 
	d="
M104.068909,155.426331 
	C106.893837,156.098801 109.722130,154.789398 112.752769,157.233444 
	C105.411461,158.914566 98.943481,157.269943 92.443062,156.100525 
	C96.202591,155.875397 99.962120,155.650269 104.068909,155.426331 
z"/>
<path fill="#000000" opacity="1.000000" stroke="none" 
	d="
M190.898865,155.958145 
	C195.394516,155.162369 199.648499,155.126175 203.851105,154.364365 
	C199.082611,156.142319 194.577667,158.938644 189.172104,157.901550 
	C188.898926,156.450058 189.849167,156.351349 190.898865,155.958145 
z"/>
</svg>