<svg version="1.1" id="Layer_1" xmlns="http://www.w3.org/2000/svg" xmlns:xlink="http://www.w3.org/1999/xlink" x="0px" y="0px"
	 width="100%" viewBox="0 0 1024 848" enable-background="new 0 0 1024 848" xml:space="preserve">
<path fill="#000000" opacity="1.000000" stroke="none" 
	d="
M372.924957,448.887573 
	C373.794128,448.342590 374.313110,447.872498 374.922699,447.640930 
	C387.360413,442.916687 387.863861,431.770844 389.836426,421.023163 
	C391.638428,411.204956 392.490082,401.294281 393.922363,391.447906 
	C395.572693,380.102814 396.391205,368.634460 398.122406,357.303894 
	C401.248108,336.845612 405.606293,316.698273 418.995514,300.000092 
	C429.595551,286.780396 443.237823,277.280334 458.113922,269.488312 
	C482.262268,256.839600 508.177094,249.836807 534.968872,245.672379 
	C539.239014,245.008621 543.407593,243.706482 547.785522,243.717392 
	C549.875427,243.722565 550.938171,242.465118 551.918762,240.692368 
	C556.590332,232.246704 564.360168,230.289963 573.228516,230.931793 
	C580.749146,231.476089 586.643799,234.511261 589.485718,241.974762 
	C590.155823,243.734787 591.410461,244.520935 593.260498,244.721909 
	C607.374695,246.255157 621.042603,249.741867 634.284546,254.750610 
	C665.101440,266.407013 693.699707,281.735046 716.663330,306.007935 
	C728.259399,318.265137 736.420105,332.400665 741.626892,348.644226 
	C749.310120,372.613190 751.789490,397.201263 752.720215,422.083588 
	C752.826233,424.916504 753.370728,426.314484 756.209412,426.993347 
	C759.806396,427.853546 762.119141,430.436737 762.155945,434.125122 
	C762.233948,441.934174 762.859924,449.781616 761.303101,457.542358 
	C760.367249,462.207367 758.308411,465.956818 753.649048,467.893768 
	C752.619263,468.321899 751.432617,469.064240 750.944763,469.991547 
	C747.983459,475.620789 742.245300,476.657227 737.067871,477.820160 
	C721.247864,481.373657 705.151733,482.392395 688.963928,481.314972 
	C685.829346,481.106293 684.165161,482.740906 682.303040,484.817474 
	C655.500793,514.706665 626.395203,541.973389 591.826843,562.823242 
	C578.811707,570.673340 565.103516,577.316101 549.890137,579.550903 
	C538.531189,581.219421 527.092896,581.335205 515.665039,578.888062 
	C488.100677,572.985413 464.874817,557.765808 440.779358,544.435303 
	C420.518799,533.226440 400.132935,522.368591 377.981873,515.231262 
	C375.209778,514.338013 373.284515,514.931519 371.147217,516.639893 
	C355.330597,529.282288 338.581757,540.419556 319.406525,547.376099 
	C307.528107,551.685486 295.443146,554.868347 282.929138,549.801636 
	C268.322968,543.887817 264.607025,529.082336 274.610626,516.856873 
	C281.485687,508.454865 290.697998,502.958679 299.582397,497.094360 
	C323.898560,481.043945 348.268402,465.074860 372.924957,448.887573 
M645.733032,382.498627 
	C645.756165,380.666412 645.784302,378.834259 645.801636,377.001984 
	C646.009827,354.973053 645.365417,333.069916 637.786560,311.977631 
	C629.470032,288.832520 614.951416,271.008942 593.100769,258.664246 
	C593.239014,260.694305 594.422974,263.014740 591.999451,263.158661 
	C588.056702,263.392822 586.186768,260.065186 584.342285,258.084534 
	C583.801147,255.540604 586.575317,256.333405 586.449463,254.549393 
	C584.589233,253.073044 582.563110,252.205719 580.042603,252.634033 
	C572.917175,253.844849 565.835388,253.567001 558.698303,252.360443 
	C555.110718,251.753952 550.846375,250.728775 549.641663,256.384247 
	C549.326965,257.861237 547.527832,258.595001 546.146667,258.987671 
	C543.935303,259.616364 541.707581,263.605896 539.844360,260.941437 
	C537.806580,258.027283 542.684875,257.445496 544.125610,254.757446 
	C531.721191,260.443481 519.875061,265.994781 509.508728,274.196289 
	C492.052429,288.007050 481.510193,306.443939 474.294342,327.084564 
	C466.936523,348.131104 464.413025,370.146271 461.350464,392.045563 
	C459.898773,402.426270 458.668793,412.838745 457.417053,423.246307 
	C456.657166,429.564423 457.430878,430.467651 463.269470,430.789124 
	C469.594940,431.137421 475.828033,432.139374 482.073578,433.191254 
	C501.166046,436.406921 519.580017,442.321686 538.265137,447.139130 
	C570.803223,455.528137 603.262512,464.169525 636.875122,467.384674 
	C641.435669,467.820862 642.805969,466.676361 642.945251,462.316101 
	C643.784363,436.040649 644.785889,409.770386 645.733032,382.498627 
M473.861816,543.551758 
	C478.278320,545.879944 482.631104,548.339905 487.123230,550.511719 
	C500.824219,557.135742 514.884033,562.651978 530.284912,563.771545 
	C550.561890,565.245422 569.091003,559.766113 586.626160,549.929810 
	C618.031555,532.313049 644.826111,508.960968 669.897461,483.434875 
	C670.544556,482.776123 671.555359,482.135895 670.498901,480.353210 
	C661.850098,480.666504 653.138428,478.323700 644.120789,478.121063 
	C629.997498,477.803650 616.200623,474.461060 602.364502,471.956757 
	C592.782776,470.222473 583.255188,467.886810 573.746521,465.616089 
	C562.821655,463.007202 551.753174,460.836792 541.002808,457.635010 
	C526.206665,453.228271 511.298035,449.208282 496.298401,445.715912 
	C472.896637,440.267212 449.046143,437.598541 424.990631,439.339569 
	C410.854706,440.362701 397.000671,442.886444 385.028412,451.723602 
	C377.000641,457.649200 368.372223,462.761902 360.004425,468.225861 
	C347.079437,476.665527 334.147400,485.094513 320.605499,493.927734 
	C330.858643,493.043274 340.303497,491.201569 349.981293,492.330688 
	C374.097565,495.144348 396.601044,502.938507 418.345184,513.432251 
	C437.112549,522.489319 454.721954,533.650757 473.861816,543.551758 
M649.700928,270.856598 
	C635.145996,264.565033 620.326782,259.151154 603.261353,256.476196 
	C604.939758,257.906342 605.524231,258.471344 606.173523,258.948059 
	C636.155701,280.961700 648.709351,312.022186 652.272766,347.746857 
	C654.397156,369.044952 652.820862,390.340454 652.123108,411.630310 
	C651.545288,429.260223 650.071106,446.857361 650.286377,464.519562 
	C650.321228,467.378448 650.654175,469.479034 654.059204,469.697449 
	C668.486145,470.622955 682.832886,473.007538 697.336914,472.436523 
	C705.641724,472.109558 713.955383,471.507843 722.208984,470.547577 
	C728.231934,469.846863 734.398071,469.287598 739.977295,466.504211 
	C739.709045,464.754669 738.036865,463.249023 739.307190,461.988586 
	C744.017761,457.314728 742.522949,451.404449 742.649658,445.908630 
	C743.426147,412.228607 742.054321,378.797119 730.770569,346.537231 
	C725.856750,332.488892 718.337219,320.165558 707.755188,309.653076 
	C691.104675,293.111938 671.239990,281.418365 649.700928,270.856598 
M399.220673,433.006897 
	C398.077789,433.674347 397.639893,434.929810 399.411407,434.313873 
	C412.254669,429.848724 425.605591,429.963745 438.902496,429.531372 
	C441.191162,429.456940 442.198975,428.676971 442.023804,426.207458 
	C441.812958,423.235016 442.108795,420.282715 445.246735,418.032257 
	C448.328308,420.853210 447.955811,424.632904 448.272491,428.296265 
	C449.697388,427.308014 449.653687,426.244263 449.779114,425.274200 
	C452.103271,407.299286 454.196564,389.291260 456.785278,371.354675 
	C459.888123,349.855957 464.795807,328.745239 474.447388,309.152283 
	C482.531128,292.742188 492.756226,277.822449 508.170349,267.144531 
	C512.888977,263.875793 517.893616,261.067902 522.649475,257.563660 
	C517.768494,259.915131 512.415405,259.692017 507.502472,260.966461 
	C485.627777,266.640808 464.832977,274.963440 446.176636,288.096436 
	C432.087280,298.014496 420.755127,310.031494 415.162933,326.718567 
	C410.301270,341.225586 407.499176,356.147491 405.864380,371.339508 
	C404.674316,382.398651 403.118591,393.418457 401.727234,404.455963 
	C400.776245,411.999939 399.827545,419.544189 398.916595,426.780304 
	C400.323578,428.631409 403.045868,427.212341 403.733765,429.658234 
	C403.531616,432.019836 401.380890,432.051788 399.220673,433.006897 
M342.359344,525.830811 
	C348.736725,521.508057 355.763458,518.078247 361.231781,512.667114 
	C360.635620,511.312958 359.753387,511.318146 358.948090,511.195465 
	C342.064575,508.622986 325.416992,509.741547 309.104218,514.762451 
	C301.692383,517.043762 295.186920,521.116150 289.520721,526.411804 
	C285.059143,530.581543 282.771790,536.579285 284.841492,539.654114 
	C288.047607,544.417236 293.156342,543.691101 297.952850,543.189636 
	C314.078339,541.503601 328.057434,534.228638 342.359344,525.830811 
M503.356812,567.126221 
	C515.738953,571.989563 528.658447,572.271362 541.696655,571.556580 
	C530.965515,571.978210 520.494324,570.421692 510.180023,567.573181 
	C492.006012,562.554077 475.793304,553.258545 459.599335,544.049011 
	C438.459503,532.026794 417.357056,519.963318 394.666077,511.040466 
	C383.334930,506.584686 371.590179,503.563995 359.450409,502.155853 
	C390.931763,508.455811 419.048309,522.652344 446.564117,538.469971 
	C464.730865,548.913330 482.692627,559.854980 503.356812,567.126221 
M321.760010,503.026733 
	C330.294830,501.699860 338.911865,501.200043 347.522644,500.562622 
	C341.365601,500.326233 335.205963,500.026825 329.088684,500.408081 
	C322.607849,500.811981 316.342377,502.720337 310.105164,504.456909 
	C300.691101,507.078003 292.201141,511.555756 284.944824,518.151001 
	C282.121735,520.716919 278.918457,523.170166 278.230316,528.839600 
	C289.562592,513.804626 304.253937,506.790070 321.760010,503.026733 
M572.183228,239.186066 
	C567.722595,239.139069 563.441162,239.606750 559.254028,243.754013 
	C567.144714,245.440628 574.011719,245.647598 581.692383,244.058960 
	C579.067627,240.575592 575.934692,240.103058 572.183228,239.186066 
z"/>
<path fill="#000000" opacity="1.000000" stroke="none" 
	d="
M574.195557,307.174438 
	C570.955383,310.723389 567.448486,312.185150 563.324951,309.716003 
	C559.368530,307.346832 558.151672,302.939850 560.185852,299.378632 
	C562.176331,295.893860 566.858826,294.406067 570.661194,296.050262 
	C574.809387,297.844025 576.187622,301.831329 574.195557,307.174438 
z"/>
<path fill="#000000" opacity="1.000000" stroke="none" 
	d="
M642.349365,378.983582 
	C643.303101,381.829895 642.390503,384.231262 641.958191,386.638458 
	C641.704712,388.050018 640.607788,388.961212 639.102112,388.902802 
	C637.422668,388.837646 636.911926,387.518341 636.857483,386.137604 
	C636.766785,383.838623 636.277161,381.404266 637.336121,379.283844 
	C638.474731,377.004059 640.299072,376.907867 642.349365,378.983582 
z"/>
<path fill="#000000" opacity="1.000000" stroke="none" 
	d="
M629.452881,460.960602 
	C632.469299,461.052856 634.193665,458.895508 636.541992,458.014008 
	C638.856567,459.779572 639.591431,462.155243 638.159912,464.445007 
	C636.727600,466.735870 634.197449,465.488892 632.319153,464.816895 
	C630.780701,464.266479 627.210510,464.835846 629.452881,460.960602 
z"/>
<path fill="#000000" opacity="1.000000" stroke="none" 
	d="
M592.762573,458.361755 
	C591.237915,457.605469 589.784973,457.116241 590.088928,455.452362 
	C590.391418,453.797119 591.880310,453.764343 593.201111,453.707855 
	C594.017761,453.672913 594.853333,453.658112 595.655579,453.787903 
	C598.297668,454.215332 601.671143,454.823792 601.202087,458.042755 
	C600.679932,461.625854 597.488708,458.979156 595.496094,459.128998 
	C594.729797,459.186646 593.924866,458.729889 592.762573,458.361755 
z"/>
<path fill="#000000" opacity="1.000000" stroke="none" 
	d="
M641.915894,359.652771 
	C642.052551,361.385437 642.161438,362.714539 642.132446,364.040649 
	C642.096985,365.665344 642.422791,367.592743 640.434509,368.316101 
	C639.087524,368.806152 638.177002,367.813080 637.913025,366.567200 
	C637.279541,363.576904 635.499207,360.328247 638.379822,357.723450 
	C639.774597,356.462189 641.129700,357.671997 641.915894,359.652771 
z"/>
<path fill="#000000" opacity="1.000000" stroke="none" 
	d="
M636.587341,400.000275 
	C637.990112,397.654358 639.261108,397.871033 640.500488,399.636505 
	C640.680725,399.893097 640.806091,400.240784 640.820862,400.552734 
	C640.949707,403.281738 641.776611,406.144592 639.598328,408.490356 
	C638.998413,409.136383 637.985413,409.297943 637.367615,408.691010 
	C634.841431,406.209381 636.144226,403.223755 636.587341,400.000275 
z"/>
<path fill="#000000" opacity="1.000000" stroke="none" 
	d="
M635.649048,327.130005 
	C630.808472,325.398621 631.120483,321.160248 630.901123,317.455719 
	C630.781189,315.431183 633.007263,314.935974 633.859436,316.558197 
	C635.524414,319.727936 638.022705,322.978119 635.649048,327.130005 
z"/>
<path fill="#000000" opacity="1.000000" stroke="none" 
	d="
M460.942322,428.683655 
	C458.678467,426.866028 459.218079,425.316956 460.822845,423.892395 
	C462.103271,422.755829 463.616791,421.665314 465.278809,422.869232 
	C466.716248,423.910431 468.295013,425.154266 468.522980,427.071930 
	C468.688507,428.464478 467.421722,428.981995 466.198059,429.176697 
	C464.540222,429.440460 462.883606,429.508789 460.942322,428.683655 
z"/>
<path fill="#000000" opacity="1.000000" stroke="none" 
	d="
M552.348511,446.711334 
	C555.704895,443.092194 558.911255,445.083435 562.066162,446.701111 
	C563.023621,447.192047 563.233398,448.271271 562.888306,449.289642 
	C562.530457,450.345764 561.578430,450.988281 560.591125,450.729340 
	C557.669373,449.962952 554.319214,450.064209 552.348511,446.711334 
z"/>
<path fill="#000000" opacity="1.000000" stroke="none" 
	d="
M544.286987,444.721344 
	C540.598022,447.134583 537.538025,445.206299 534.620728,443.646271 
	C533.305420,442.942871 532.733582,441.183197 534.708984,440.168274 
	C536.825989,439.080566 543.187073,441.918488 544.286987,444.721344 
z"/>
<path fill="#000000" opacity="1.000000" stroke="none" 
	d="
M640.060486,425.631134 
	C639.664429,427.536499 639.314880,429.193329 637.276489,428.817383 
	C635.619690,428.511780 635.673767,426.873138 635.470703,425.607147 
	C635.098694,423.288391 634.976379,420.941345 636.460205,418.918945 
	C637.006042,418.175140 637.966187,418.153717 638.693726,418.721863 
	C640.937988,420.474243 639.927185,422.979279 640.060486,425.631134 
z"/>
<path fill="#000000" opacity="1.000000" stroke="none" 
	d="
M476.340546,428.772888 
	C479.914246,424.923462 483.245697,427.709900 486.601898,428.905273 
	C487.393890,429.187347 487.680267,430.116119 487.280609,430.997375 
	C486.902191,431.831848 486.141052,432.231873 485.291199,432.179138 
	C482.053650,431.978271 478.646942,432.209076 476.340546,428.772888 
z"/>
<path fill="#000000" opacity="1.000000" stroke="none" 
	d="
M634.692383,444.772736 
	C635.127930,441.983734 633.717285,437.845337 637.153015,437.976288 
	C640.857788,438.117554 638.985291,442.404633 639.475403,444.849182 
	C639.798279,446.458923 639.266052,448.387848 637.202698,448.586823 
	C634.884644,448.810303 634.838379,446.853912 634.692383,444.772736 
z"/>
<path fill="#000000" opacity="1.000000" stroke="none" 
	d="
M618.648926,462.582214 
	C615.065186,462.075165 611.414490,462.529724 608.847412,459.100708 
	C612.054260,456.031403 615.394287,457.385010 618.439941,458.491272 
	C620.175537,459.121674 620.644409,460.857208 618.648926,462.582214 
z"/>
<path fill="#000000" opacity="1.000000" stroke="none" 
	d="
M612.942383,284.287537 
	C612.385315,282.626648 612.252747,281.244812 613.902954,280.692657 
	C615.131287,280.281677 616.338074,280.917938 616.869019,281.987183 
	C618.094238,284.454651 622.599304,287.224701 619.777710,289.318390 
	C616.400146,291.824615 615.460693,286.195526 612.942383,284.287537 
z"/>
<path fill="#000000" opacity="1.000000" stroke="none" 
	d="
M474.486755,360.170654 
	C473.977081,361.957794 473.757263,363.822388 471.801361,363.520660 
	C469.667145,363.191376 469.833862,361.245911 469.877625,359.585724 
	C469.881927,359.421814 469.865326,359.244873 469.919922,359.096619 
	C470.733734,356.886444 469.420471,352.602539 473.122864,353.136566 
	C476.685425,353.650391 474.837402,357.333496 474.486755,360.170654 
z"/>
<path fill="#000000" opacity="1.000000" stroke="none" 
	d="
M479.888885,322.273560 
	C480.586609,320.922211 481.049408,319.840973 481.763245,318.964081 
	C482.228729,318.392212 483.043854,317.806854 483.728760,317.773743 
	C485.152130,317.704834 486.000702,318.879364 485.548676,320.046448 
	C484.431091,322.931946 484.621582,326.983124 480.770630,327.827362 
	C478.974487,328.221100 478.852814,326.068390 479.207764,324.517334 
	C479.353729,323.879578 479.574036,323.258881 479.888885,322.273560 
z"/>
<path fill="#000000" opacity="1.000000" stroke="none" 
	d="
M472.215576,374.933716 
	C472.077515,376.329285 472.035553,377.331146 471.803314,378.286743 
	C471.440826,379.778442 470.454926,380.592102 468.883850,380.206360 
	C467.325287,379.823730 466.889557,378.582214 467.036774,377.136658 
	C467.136688,376.154968 467.355347,375.179108 467.595917,374.219452 
	C467.985901,372.663574 467.986694,370.409363 470.006287,370.386597 
	C472.647369,370.356842 472.097198,372.785187 472.215576,374.933716 
z"/>
<path fill="#000000" opacity="1.000000" stroke="none" 
	d="
M463.000305,410.142120 
	C463.318848,408.458130 463.487305,407.123596 463.938263,405.892487 
	C464.325653,404.835022 465.419922,404.341034 466.386719,404.869995 
	C468.866119,406.226501 468.022339,408.619629 467.759399,410.658112 
	C467.557983,412.220032 467.489288,414.497528 465.423950,414.569763 
	C462.893433,414.658325 462.990845,412.390717 463.000305,410.142120 
z"/>
<path fill="#000000" opacity="1.000000" stroke="none" 
	d="
M465.172333,391.668671 
	C465.921631,389.922119 465.762878,387.472961 468.002106,387.908630 
	C470.645081,388.422791 470.036346,390.965607 469.816223,392.789154 
	C469.599731,394.582642 469.916779,397.506958 467.322601,397.388916 
	C463.901398,397.233215 464.942596,394.229156 465.172333,391.668671 
z"/>
<path fill="#000000" opacity="1.000000" stroke="none" 
	d="
M635.935242,337.766144 
	C637.272766,335.921326 638.490112,336.210663 639.061523,337.765320 
	C639.967834,340.231232 640.589478,342.818665 640.184509,345.506989 
	C639.999939,346.732117 639.492126,347.784454 638.073120,347.800537 
	C636.649048,347.816711 635.996216,346.742432 635.923157,345.547333 
	C635.772766,343.090973 635.832947,340.621704 635.935242,337.766144 
z"/>
<path fill="#000000" opacity="1.000000" stroke="none" 
	d="
M474.301727,339.619293 
	C475.234680,337.707245 475.317352,335.573273 478.127594,335.223572 
	C480.297516,338.502319 479.019775,341.654572 477.485992,344.728485 
	C477.113617,345.474792 476.080811,345.758728 475.278839,345.312592 
	C472.915436,343.997864 473.929413,341.898834 474.301727,339.619293 
z"/>
<path fill="#000000" opacity="1.000000" stroke="none" 
	d="
M580.291138,451.354065 
	C582.179260,454.060730 581.389282,455.502838 578.569092,455.091827 
	C576.070251,454.727631 573.230164,454.764191 571.419739,452.470673 
	C571.136902,452.112335 571.218628,450.918549 571.516846,450.734314 
	C574.387695,448.960754 577.178528,450.360870 580.291138,451.354065 
z"/>
<path fill="#000000" opacity="1.000000" stroke="none" 
	d="
M506.548065,434.136963 
	C503.107117,438.141632 499.910614,435.201080 497.066620,433.709351 
	C495.363525,432.816010 496.382141,430.917816 498.287567,430.832092 
	C501.356110,430.694092 504.567322,430.611877 506.548065,434.136963 
z"/>
<path fill="#000000" opacity="1.000000" stroke="none" 
	d="
M524.877808,439.653381 
	C521.412842,441.683380 518.704956,439.784637 516.043091,438.332977 
	C514.624512,437.559326 514.522827,436.149475 516.190491,435.281586 
	C518.327393,434.169495 523.743286,436.681061 524.877808,439.653381 
z"/>
<path fill="#000000" opacity="1.000000" stroke="none" 
	d="
M501.335663,287.367188 
	C504.014862,286.869293 504.960907,288.101624 503.839569,290.011444 
	C502.476715,292.332611 501.111603,294.947998 498.117249,295.661774 
	C497.721710,295.756042 496.739929,295.052917 496.678955,294.626312 
	C496.177246,291.115295 498.927338,289.504700 501.335663,287.367188 
z"/>
<path fill="#000000" opacity="1.000000" stroke="none" 
	d="
M515.973511,278.128723 
	C515.585388,278.459808 515.475525,278.608185 515.329590,278.666901 
	C513.257019,279.500610 511.287079,283.694061 509.368500,280.961395 
	C507.359039,278.099274 511.528442,276.550568 513.503357,274.813873 
	C514.402954,274.022766 515.599976,273.544464 516.648743,274.517456 
	C517.961975,275.735809 517.297424,276.884857 515.973511,278.128723 
z"/>
<path fill="#000000" opacity="1.000000" stroke="none" 
	d="
M490.139496,309.875671 
	C489.225616,311.240326 488.293121,311.937103 487.060303,311.064941 
	C486.162537,310.429810 485.977081,309.409271 486.435150,308.386505 
	C487.513153,305.979584 488.341492,303.342163 491.040924,302.194336 
	C491.447540,302.021423 492.559631,302.464630 492.686646,302.843597 
	C493.625519,305.644836 491.084778,307.301910 490.139496,309.875671 
z"/>
<path fill="#000000" opacity="1.000000" stroke="none" 
	d="
M628.558228,300.753113 
	C629.161316,301.961212 629.670227,302.821655 629.956299,303.750732 
	C630.345032,305.013458 630.670471,306.474640 629.136108,307.178192 
	C627.585022,307.889435 626.702942,306.660736 626.010742,305.539093 
	C625.415100,304.573853 624.944519,303.515137 624.541260,302.451294 
	C623.980103,300.970886 622.818604,299.091034 624.724487,298.091522 
	C626.651489,297.080902 627.515442,299.047272 628.558228,300.753113 
z"/>
<path fill="#000000" opacity="1.000000" stroke="none" 
	d="
M600.670776,268.058899 
	C604.967041,267.173096 606.327148,270.528198 608.143921,272.898956 
	C609.132812,274.189423 607.920105,276.143585 606.587097,275.386566 
	C603.838623,273.825714 599.830872,272.884186 600.670776,268.058899 
z"/>
<path fill="#000000" opacity="1.000000" stroke="none" 
	d="
M523.746826,269.493713 
	C525.281128,265.323090 528.198120,263.834320 532.393921,264.665436 
	C530.230835,267.500092 528.505676,271.004944 523.746826,269.493713 
z"/>
<path fill="#000000" opacity="1.000000" stroke="none" 
	d="
M679.277466,307.521332 
	C681.624207,304.643463 684.352783,303.847595 687.508240,304.619415 
	C692.016479,305.722168 694.989014,310.754944 693.709473,314.962585 
	C692.541077,318.804626 688.102661,320.991394 684.115173,319.689545 
	C678.896179,317.985687 676.982239,313.508820 679.277466,307.521332 
z"/>
<path fill="#000000" opacity="1.000000" stroke="none" 
	d="
M660.932251,467.467346 
	C657.752686,468.869598 655.172607,468.149506 653.553955,465.750244 
	C651.757080,463.086578 653.591248,460.307159 654.391052,457.712372 
	C654.826904,456.298370 656.765442,455.636414 657.598877,456.859070 
	C659.467896,459.600891 660.840942,462.689423 662.281189,465.701233 
	C662.421082,465.993805 661.621826,466.735474 660.932251,467.467346 
z"/>
<path fill="#000000" opacity="1.000000" stroke="none" 
	d="
M656.948120,331.845764 
	C654.744873,333.286713 653.701416,332.287598 652.882507,330.541626 
	C651.389160,327.357727 651.511658,324.227020 653.691772,320.878418 
	C656.467285,324.108795 658.216797,327.304016 656.948120,331.845764 
z"/>
<path fill="#000000" opacity="1.000000" stroke="none" 
	d="
M656.644226,418.805969 
	C659.721436,417.702728 660.016357,419.789368 660.072083,421.550659 
	C660.152100,424.081726 661.251038,427.065186 658.987000,428.988953 
	C657.324890,430.401306 655.945923,428.936371 655.364685,427.175720 
	C654.430908,424.347198 655.389221,421.702332 656.644226,418.805969 
z"/>
<path fill="#000000" opacity="1.000000" stroke="none" 
	d="
M722.246704,467.782898 
	C723.373352,464.686066 729.804565,462.253387 731.870911,463.843262 
	C733.559692,465.142609 732.927002,466.674683 731.358459,467.349457 
	C728.531433,468.565643 725.589661,470.002075 722.246704,467.782898 
z"/>
<path fill="#000000" opacity="1.000000" stroke="none" 
	d="
M638.939697,288.715027 
	C642.220337,288.807312 646.326233,293.580505 645.711731,296.057831 
	C645.495850,296.927979 644.947144,297.533478 644.082458,297.750763 
	C642.975464,298.028839 642.051331,297.542725 641.538879,296.632599 
	C640.194519,294.244965 637.988403,292.149567 638.939697,288.715027 
z"/>
<path fill="#000000" opacity="1.000000" stroke="none" 
	d="
M659.221558,350.568726 
	C657.504456,352.746979 656.054321,352.229553 655.445374,350.235382 
	C654.577759,347.394043 654.259094,344.393036 655.417786,341.513428 
	C655.740295,340.711792 656.786072,340.322540 657.520874,340.875092 
	C660.073486,342.794556 658.902649,345.717407 659.296448,348.218964 
	C659.397949,348.863708 659.316101,349.537262 659.221558,350.568726 
z"/>
<path fill="#000000" opacity="1.000000" stroke="none" 
	d="
M688.286621,470.349030 
	C685.378174,469.388031 686.050110,468.068146 687.519043,466.694489 
	C687.748596,466.479858 688.097351,466.332092 688.412170,466.278931 
	C691.037048,465.835632 693.707214,465.298218 696.076843,467.029663 
	C696.458923,467.308868 696.716919,468.387848 696.487610,468.772400 
	C694.937256,471.372650 692.298279,469.867798 690.152771,470.288300 
	C689.669556,470.382996 689.158569,470.336548 688.286621,470.349030 
z"/>
<path fill="#000000" opacity="1.000000" stroke="none" 
	d="
M661.097778,386.001221 
	C660.837891,388.138947 661.259338,390.746490 658.826172,390.658691 
	C655.932129,390.554291 656.759583,387.711731 656.812622,385.941986 
	C656.876221,383.822815 655.888428,381.231964 658.708557,379.637299 
	C661.331482,380.908295 660.823425,383.416412 661.097778,386.001221 
z"/>
<path fill="#000000" opacity="1.000000" stroke="none" 
	d="
M657.539124,360.490204 
	C661.818298,361.277008 662.566345,366.441681 659.026428,371.227875 
	C655.554993,368.102356 656.951294,364.335480 657.539124,360.490204 
z"/>
<path fill="#000000" opacity="1.000000" stroke="none" 
	d="
M678.890808,467.074280 
	C677.415649,469.582153 670.732422,469.983704 669.494202,467.961273 
	C668.494385,466.328247 669.585144,465.360107 670.980225,465.144501 
	C673.708008,464.722931 676.550964,464.285187 678.890808,467.074280 
z"/>
<path fill="#000000" opacity="1.000000" stroke="none" 
	d="
M657.091675,437.109833 
	C660.821167,439.705780 659.079529,443.040375 658.709656,446.134888 
	C658.611572,446.955933 657.701355,447.409271 656.777039,447.312988 
	C655.854248,447.216858 655.096863,446.589386 655.092712,445.768127 
	C655.077698,442.808350 653.377563,439.495697 657.091675,437.109833 
z"/>
<path fill="#000000" opacity="1.000000" stroke="none" 
	d="
M713.050049,469.775085 
	C710.699280,470.033417 708.715576,470.178772 706.731018,470.191650 
	C705.692078,470.198364 704.719177,469.781921 704.417603,468.661438 
	C704.113953,467.533447 704.705383,466.638947 705.708923,466.284119 
	C708.112488,465.434113 710.671814,465.254089 713.031860,466.136505 
	C714.793457,466.795135 714.996338,468.254425 713.050049,469.775085 
z"/>
<path fill="#000000" opacity="1.000000" stroke="none" 
	d="
M629.417542,277.438171 
	C628.533081,276.072357 627.330627,274.906525 628.824158,273.745026 
	C630.052917,272.789429 631.502441,273.372070 632.379639,274.370331 
	C633.980225,276.191956 635.867493,277.938812 636.089539,280.581024 
	C636.167297,281.506165 635.468201,282.334625 634.615417,282.199677 
	C632.056274,281.794891 631.239746,279.287842 629.417542,277.438171 
z"/>
<path fill="#000000" opacity="1.000000" stroke="none" 
	d="
M651.641968,313.292847 
	C646.995789,312.617584 647.148987,308.656555 646.232788,305.478363 
	C646.035889,304.795410 646.976501,304.077606 647.898499,303.997559 
	C648.799927,303.919342 649.572327,304.305817 649.932373,305.094604 
	C651.074097,307.595093 652.778015,309.977295 651.641968,313.292847 
z"/>
<path fill="#000000" opacity="1.000000" stroke="none" 
	d="
M619.727112,262.096802 
	C621.384277,264.260498 625.824402,265.719971 623.091736,268.333405 
	C620.558472,270.756134 618.888123,266.536896 617.029968,264.987091 
	C616.064209,264.181610 615.003845,263.182373 615.403259,261.585052 
	C616.845825,260.249512 618.136536,261.118561 619.727112,262.096802 
z"/>
<path fill="#000000" opacity="1.000000" stroke="none" 
	d="
M660.310913,403.995819 
	C660.069031,406.143005 660.808899,408.160187 658.819519,409.344940 
	C655.975159,406.858734 655.775635,403.268768 658.258972,399.271210 
	C660.925903,399.746704 660.139709,401.891327 660.310913,403.995819 
z"/>
<path fill="#000000" opacity="1.000000" stroke="none" 
	d="
M448.600433,302.716370 
	C443.724487,300.795135 442.963379,297.281647 444.406555,293.254028 
	C445.862030,289.192017 449.069946,287.307556 453.407532,287.979523 
	C457.250397,288.574860 459.081238,291.148773 459.187988,294.908966 
	C459.305969,299.067017 456.398041,302.264069 451.937103,302.956909 
	C450.982697,303.105133 449.971619,302.888611 448.600433,302.716370 
z"/>
<path fill="#000000" opacity="1.000000" stroke="none" 
	d="
M457.576172,352.086334 
	C456.853302,353.731140 456.091736,354.810699 454.454193,354.108276 
	C453.217682,353.577881 452.837219,352.392212 453.150238,351.223297 
	C453.855377,348.590271 453.560791,345.538849 455.979095,343.577209 
	C456.644409,343.037537 457.688995,343.085754 458.216003,343.808472 
	C460.213440,346.547791 458.296265,349.117279 457.576172,352.086334 
z"/>
<path fill="#000000" opacity="1.000000" stroke="none" 
	d="
M453.404053,372.816498 
	C450.426300,373.564728 449.714722,371.731964 450.173981,369.857178 
	C450.804108,367.284760 449.383057,363.874451 452.416168,362.264771 
	C453.988525,361.430328 455.281555,362.718811 455.347076,364.510406 
	C455.449860,367.319153 455.242645,370.109894 453.404053,372.816498 
z"/>
<path fill="#000000" opacity="1.000000" stroke="none" 
	d="
M446.919861,410.768799 
	C443.396606,408.312073 443.580566,403.936890 447.460114,399.142212 
	C449.926605,403.275238 449.586639,406.940552 446.919861,410.768799 
z"/>
<path fill="#000000" opacity="1.000000" stroke="none" 
	d="
M451.461792,381.701050 
	C452.532135,385.770935 451.891846,389.089203 448.874146,392.071259 
	C445.499695,389.328491 446.977570,386.227570 447.607635,383.327942 
	C448.014191,381.456909 449.070038,380.306946 451.461792,381.701050 
z"/>
<path fill="#000000" opacity="1.000000" stroke="none" 
	d="
M499.730042,270.764832 
	C496.596741,270.163910 496.272034,268.522125 498.115570,266.662354 
	C499.352356,265.414673 501.050903,264.600494 502.604889,263.699310 
	C503.826019,262.991150 505.215851,262.777313 506.122864,264.113220 
	C507.101593,265.554749 506.099060,266.573608 504.963074,267.372681 
	C503.355957,268.503204 501.710754,269.579590 499.730042,270.764832 
z"/>
<path fill="#000000" opacity="1.000000" stroke="none" 
	d="
M460.062622,326.485352 
	C460.318634,326.029449 460.402496,325.886383 460.503235,325.756378 
	C461.332184,324.686493 462.718567,324.052490 463.246094,325.446564 
	C464.441864,328.606689 462.753418,331.507721 461.542419,334.350922 
	C461.125366,335.330048 460.195038,335.888489 459.117279,335.277161 
	C457.520813,334.371552 457.564880,332.790375 457.992279,331.349457 
	C458.456726,329.783691 459.248962,328.315186 460.062622,326.485352 
z"/>
<path fill="#000000" opacity="1.000000" stroke="none" 
	d="
M466.724121,308.629822 
	C467.849609,307.207794 468.926636,306.385254 470.307648,307.468842 
	C471.412567,308.335846 471.187500,309.613220 470.645538,310.666046 
	C469.525848,312.841125 468.876038,315.390900 466.626099,316.766998 
	C465.835052,317.250824 464.913300,316.630676 464.594421,315.835236 
	C463.493958,313.090118 465.483551,311.141205 466.724121,308.629822 
z"/>
<path fill="#000000" opacity="1.000000" stroke="none" 
	d="
M473.634094,299.149536 
	C472.943787,295.103729 476.056091,293.118011 477.781738,290.443451 
	C478.251404,289.715454 479.362671,289.757019 480.027496,290.344971 
	C480.449554,290.718201 480.902039,291.772278 480.707001,292.018066 
	C478.622742,294.644775 478.700958,299.318909 473.634094,299.149536 
z"/>
<path fill="#000000" opacity="1.000000" stroke="none" 
	d="
M439.254211,426.440247 
	C436.980469,427.623199 434.868561,427.848328 432.703522,427.536285 
	C431.479523,427.359863 430.369476,426.822113 430.316528,425.443909 
	C430.264038,424.076385 431.386902,423.142944 432.509399,423.183899 
	C435.146149,423.280151 439.146790,420.585846 439.254211,426.440247 
z"/>
<path fill="#000000" opacity="1.000000" stroke="none" 
	d="
M492.357666,275.679138 
	C492.737671,277.264221 492.099915,278.319733 491.204285,278.993866 
	C489.238281,280.473663 488.420929,283.766693 485.140839,283.139160 
	C484.378662,282.993317 483.927948,281.655762 484.545807,281.068451 
	C486.859650,278.869049 487.080475,273.748962 492.357666,275.679138 
z"/>
<path fill="#000000" opacity="1.000000" stroke="none" 
	d="
M419.173035,428.949280 
	C416.447266,429.076141 413.886292,429.986572 411.798004,427.434692 
	C414.357788,424.532471 417.500366,424.208984 420.368896,425.497925 
	C422.232239,426.335297 421.067383,427.985352 419.173035,428.949280 
z"/>
</svg>