<svg version="1.1" id="Layer_1" xmlns="http://www.w3.org/2000/svg" xmlns:xlink="http://www.w3.org/1999/xlink" x="0px" y="0px"
	 width="100%" viewBox="0 0 256 240" enable-background="new 0 0 256 240" xml:space="preserve">
<path fill="#000000" opacity="1.000000" stroke="none" 
	d="
M100.665497,56.550549 
	C106.320030,54.244991 111.431709,54.522797 117.042686,55.902397 
	C125.648407,58.018337 134.538986,58.133690 143.073944,54.877750 
	C145.254303,54.045975 147.272522,54.099941 149.388046,54.772495 
	C155.731750,56.789261 162.063095,58.846035 168.423660,60.808094 
	C171.273346,61.687141 173.336670,63.527821 175.134476,65.772026 
	C181.795929,74.087517 188.394226,82.454689 195.148682,90.693901 
	C197.149734,93.134819 197.153702,94.927193 194.693954,96.987663 
	C189.335251,101.476501 184.151230,106.173988 178.787918,110.657120 
	C175.610352,113.313194 175.517868,113.202545 169.446899,108.361794 
	C169.446899,115.523125 169.284653,122.436157 169.479584,129.339096 
	C169.930481,145.306778 170.481598,161.272644 171.154358,177.232407 
	C171.345337,181.762650 169.643387,183.391785 165.069611,183.362198 
	C140.591568,183.203873 116.111725,183.213181 91.633308,183.330322 
	C87.090385,183.352066 85.250778,182.333572 85.450172,177.113403 
	C86.250542,156.160538 87.110687,135.198151 86.811226,114.217690 
	C86.788399,112.617950 86.642044,111.019966 86.468140,107.893646 
	C81.392479,115.953323 78.056419,111.055260 74.434052,108.043358 
	C70.338356,104.637878 66.279106,101.176285 62.022095,97.981468 
	C59.214905,95.874710 58.503887,94.071442 60.958900,91.071465 
	C67.916122,82.569901 74.664711,73.896988 81.454269,65.259171 
	C83.753220,62.334419 87.041801,61.157536 90.337952,59.988598 
	C93.631393,58.820625 96.964485,57.764431 100.665497,56.550549 
M178.958862,101.693581 
	C178.561050,104.116066 175.269684,104.443100 174.824417,108.250839 
	C181.736847,103.719131 187.055359,98.828156 191.899323,93.323875 
	C186.998947,94.982025 183.835663,99.326874 179.160034,100.329231 
	C181.234940,97.474792 183.885391,95.171623 186.666885,93.092026 
	C189.509491,90.966743 189.623581,88.957565 187.145111,86.623978 
	C180.496002,80.363503 176.876999,71.613297 168.634216,66.352562 
	C164.027924,63.412716 159.322311,61.968491 154.486588,60.329025 
	C152.134186,59.531487 150.991150,61.513393 150.181717,63.519398 
	C148.164307,68.519196 144.547989,72.161186 139.933670,74.743912 
	C127.479416,81.714851 113.465256,77.206161 105.937332,63.861134 
	C104.843193,61.921516 103.887917,59.573139 101.196281,60.469959 
	C96.885719,61.906181 91.769188,61.787498 88.771507,65.938446 
	C88.212723,66.712204 88.904701,68.519402 89.245872,69.788818 
	C90.329636,73.821236 91.357033,77.893715 91.321480,82.067451 
	C91.199059,96.441734 91.565430,110.806213 90.858315,125.195862 
	C90.158150,139.444183 90.705215,153.753799 90.705215,167.994354 
	C91.309036,167.843491 92.797287,166.689392 92.703445,168.821838 
	C92.482841,173.834854 95.701340,173.782730 99.276291,173.773300 
	C113.102707,173.736816 126.929573,173.802475 140.755905,173.888702 
	C142.452576,173.899292 144.320053,173.446457 147.014038,175.577774 
	C128.537567,177.127518 111.098846,174.892715 92.853569,176.761520 
	C97.772758,180.658905 159.451202,180.603073 163.424942,177.196213 
	C158.758148,175.009552 153.464569,177.509262 148.481918,174.816925 
	C151.661682,173.283279 154.343323,173.836258 156.913864,173.759933 
	C163.400269,173.567398 163.756500,173.110458 163.040909,166.819199 
	C161.421265,152.579895 160.202881,138.312881 160.896973,123.955070 
	C161.027573,121.253662 161.224625,118.561470 163.172852,116.206551 
	C162.358871,134.619720 163.740891,152.807266 166.300552,170.938309 
	C166.780670,169.655411 166.796310,168.385818 166.778229,167.116699 
	C166.616882,155.790268 167.163742,144.392776 166.044479,133.161453 
	C165.236801,125.056969 168.333405,116.361710 163.058212,108.809105 
	C167.355774,99.715622 163.534454,90.134773 164.730606,80.852402 
	C165.184219,77.332169 165.411682,73.763252 167.871063,70.836479 
	C168.060028,72.870110 167.882446,74.828781 167.638412,76.779144 
	C166.811142,83.390778 166.284424,90.034470 167.158234,96.656425 
	C167.982956,102.906372 171.403580,104.547897 176.625198,101.608215 
	C177.305984,101.224945 178.191376,101.205078 178.958862,101.693581 
M73.947205,81.402794 
	C72.147766,83.580635 70.313766,85.731140 68.561485,87.946289 
	C67.460945,89.337555 66.612282,91.169510 68.411026,92.325371 
	C73.845726,95.817650 77.949326,101.052391 83.646118,104.070793 
	C90.284470,98.885643 91.200134,78.546539 85.037186,67.594093 
	C81.365059,72.144165 77.862373,76.484283 73.947205,81.402794 
M116.748367,63.926968 
	C125.737816,71.607025 138.295395,69.888397 140.767868,59.874290 
	C132.144623,62.143085 123.698112,60.890568 115.301331,60.198570 
	C114.971390,61.953880 115.628456,62.700607 116.748367,63.926968 
M73.459953,99.052094 
	C70.948296,97.451805 69.064896,94.821281 65.799347,94.392700 
	C69.825218,99.892303 75.353264,103.506233 80.236389,107.908134 
	C80.631172,107.454147 81.025963,107.000160 81.420746,106.546173 
	C78.954918,104.188377 76.489082,101.830589 73.459953,99.052094 
M119.320557,70.345001 
	C115.160164,68.544098 112.838478,64.648163 109.598961,61.833309 
	C112.780113,68.959839 118.126724,73.058739 126.186676,73.246246 
	C124.115364,72.394196 122.044044,71.542152 119.320557,70.345001 
M142.960464,67.532066 
	C144.082642,65.965744 146.034622,64.857277 146.111115,61.425297 
	C143.199585,66.650597 139.163132,69.185822 134.186325,72.479874 
	C138.394547,71.755196 140.552063,70.082413 142.960464,67.532066 
z"/>
<path fill="#000000" opacity="1.000000" stroke="none" 
	d="
M94.935577,122.454666 
	C94.952232,126.777977 95.955925,130.822693 93.881714,134.652267 
	C92.652054,129.519272 92.578629,124.377197 93.178841,119.024200 
	C95.187996,119.695343 94.418106,121.147346 94.935577,122.454666 
z"/>
</svg>